<svg width="24" height="24" viewBox="0 0 24 24" fill="none" xmlns="http://www.w3.org/2000/svg">
<g clip-path="url(#clip0)">
<path d="M5.84965 5.54342C7.33452 5.49197 8.69662 4.70556 9.48362 3.44535C10.6454 1.58496 13.3546 1.58496 14.5164 3.44535C15.3034 4.70556 16.6655 5.49197 18.1504 5.54342C20.3424 5.61939 21.697 7.96558 20.6667 9.90193C19.9689 11.2136 19.9689 12.7864 20.6667 14.0981C21.697 16.0344 20.3424 18.3806 18.1504 18.4566C16.6655 18.508 15.3034 19.2944 14.5164 20.5546C13.3546 22.415 10.6454 22.415 9.48362 20.5546C8.69662 19.2944 7.33452 18.508 5.84965 18.4566C3.6576 18.3806 2.30303 16.0344 3.33327 14.0981C4.03114 12.7864 4.03114 11.2136 3.33327 9.90193C2.30303 7.96558 3.6576 5.61939 5.84965 5.54342Z" stroke="#3A3E41" stroke-width="1.5"/>
<circle cx="12" cy="12" r="3.25" stroke="#3A3E41" stroke-width="1.5"/>
</g>
<defs>
<clipPath id="clip0">
<rect width="24" height="24" fill="white"/>
</clipPath>
</defs>
</svg>
